<svg xmlns="http://www.w3.org/2000/svg" viewBox="0 0 1024 1024" width="1024" height="1024" role="img" aria-label="Étude app icon">
<defs>
  <linearGradient id="bg" x1="0" y1="0" x2="0" y2="1">
    <stop offset="0" stop-color="#241a33"/><stop offset="0.55" stop-color="#161020"/><stop offset="1" stop-color="#0d0912"/>
  </linearGradient>
  <radialGradient id="lamp" cx="0.5" cy="0.1" r="0.72">
    <stop offset="0" stop-color="#d6a94c" stop-opacity="0.34"/><stop offset="0.45" stop-color="#d6a94c" stop-opacity="0.07"/><stop offset="1" stop-color="#d6a94c" stop-opacity="0"/>
  </radialGradient>
  <linearGradient id="wk" x1="0" y1="0" x2="0" y2="1">
    <stop offset="0" stop-color="#f9f3e7"/><stop offset="0.82" stop-color="#eee4d0"/><stop offset="1" stop-color="#dbceb3"/>
  </linearGradient>
  <linearGradient id="lit" x1="0" y1="0" x2="0" y2="1">
    <stop offset="0" stop-color="#f7e1a3"/><stop offset="0.55" stop-color="#e8c277"/><stop offset="1" stop-color="#d2a447"/>
  </linearGradient>
  <linearGradient id="bk" x1="0" y1="0" x2="0" y2="1">
    <stop offset="0" stop-color="#3a3044"/><stop offset="0.8" stop-color="#14101b"/><stop offset="1" stop-color="#0a0710"/>
  </linearGradient>
  <linearGradient id="beam" x1="0" y1="1" x2="0" y2="0">
    <stop offset="0" stop-color="#f0cd7c" stop-opacity="0.55"/><stop offset="1" stop-color="#f0cd7c" stop-opacity="0"/>
  </linearGradient>
  <filter id="soft" x="-60%" y="-60%" width="220%" height="220%"><feGaussianBlur stdDeviation="26"/></filter>
  <filter id="soft2" x="-60%" y="-60%" width="220%" height="220%"><feGaussianBlur stdDeviation="9"/></filter>
</defs>
<rect width="1024" height="1024" fill="url(#bg)"/>
<rect width="1024" height="1024" fill="url(#lamp)"/>
<g stroke="#f2ead9" stroke-opacity="0.07" stroke-width="3.5">
  <line x1="206" y1="214" x2="818" y2="214"/><line x1="206" y1="258" x2="818" y2="258"/>
  <line x1="206" y1="302" x2="818" y2="302"/><line x1="206" y1="346" x2="818" y2="346"/><line x1="206" y1="390" x2="818" y2="390"/>
</g>
<path d="M512 430 L640 150 Q512 110 384 150 Z" fill="url(#beam)" filter="url(#soft)"/>
<g filter="url(#soft2)" opacity="0.95">
  <ellipse cx="498" cy="276" rx="58" ry="44" transform="rotate(-18 498 276)" fill="#f3d68f"/>
  <rect x="548" y="120" width="11" height="166" rx="5" fill="#f3d68f"/>
  <path d="M559 120 q70 26 44 96 q4 -54 -44 -78 Z" fill="#f3d68f"/>
</g>
<rect x="438" y="404" width="148" height="470" rx="20" fill="#d6a94c" filter="url(#soft)" opacity="0.85"/>
<g>
  <rect x="224" y="428" width="108" height="446" rx="15" fill="url(#wk)"/>
  <rect x="340" y="428" width="108" height="446" rx="15" fill="url(#wk)"/>
  <rect x="456" y="424" width="112" height="452" rx="16" fill="url(#lit)"/>
  <rect x="576" y="428" width="108" height="446" rx="15" fill="url(#wk)"/>
  <rect x="692" y="428" width="108" height="446" rx="15" fill="url(#wk)"/>
  <rect x="305" y="424" width="66" height="270" rx="12" fill="url(#bk)"/>
  <rect x="421" y="424" width="66" height="270" rx="12" fill="url(#bk)"/>
  <rect x="653" y="424" width="66" height="270" rx="12" fill="url(#bk)"/>
</g>
<rect x="456" y="424" width="112" height="20" rx="8" fill="#fff" opacity="0.35"/>
</svg>
